Coordinates
version=1
nRows=26
nColumns=11
inDegrees=yes

Units are S.I. units (second, meters, Newtons, ...)
If the header above contains a line with 'inDegrees', this indicates whether rotational values are in degrees (yes) or radians (no).

endheader
time	pelvis_tilt	pelvis_tx	pelvis_ty	hip_flexion_l	hip_flexion_r	knee_angle_l	knee_angle_r	ankle_angle_l	ankle_angle_r	lumbar
     13.60000000	     16.50272234	     -0.04571184	      0.73210030	     57.06390653	     57.06390653	    -79.43873673	    -79.43873673	      4.53892106	      4.53892106	    -30.76505615
     13.61000000	     16.49384105	     -0.04565163	      0.73211843	     57.06520344	     57.06520344	    -79.43884194	    -79.43884194	      4.53821559	      4.53821559	    -30.77401125
     13.62000000	     16.48209075	     -0.04570375	      0.73212022	     57.08364258	     57.08364258	    -79.43243044	    -79.43243044	      4.53476864	      4.53476864	    -30.81298749
     13.63000000	     16.46952375	     -0.04565724	      0.73213570	     57.08684320	     57.08684320	    -79.43161640	    -79.43161640	      4.53390500	      4.53390500	    -30.82743724
     13.64000000	     16.45545032	     -0.04569629	      0.73214612	     57.10396994	     57.10396994	    -79.42498451	    -79.42498451	      4.53259584	      4.53259584	    -30.86651708
     13.65000000	     16.43975875	     -0.04572423	      0.73213833	     57.12055412	     57.12055412	    -79.41718659	    -79.41718659	      4.53002058	      4.53002058	    -30.90336688
     13.66000000	     16.42214793	     -0.04573142	      0.73214006	     57.13561755	     57.13561755	    -79.41074830	    -79.41074830	      4.52797250	      4.52797250	    -30.94036020
     13.67000000	     16.40371665	     -0.04575323	      0.73214192	     57.15289830	     57.15289830	    -79.40353489	    -79.40353489	      4.52585371	      4.52585371	    -30.98266686
     13.68000000	     16.38336173	     -0.04577573	      0.73214184	     57.17211394	     57.17211394	    -79.39599192	    -79.39599192	      4.52403618	      4.52403618	    -31.03181539
     13.69000000	     16.36135793	     -0.04580191	      0.73214073	     57.19320402	     57.19320402	    -79.38804202	    -79.38804202	      4.52257307	      4.52257307	    -31.08786762
     13.70000000	     16.33756868	     -0.04583172	      0.73213889	     57.21621435	     57.21621435	    -79.37967454	    -79.37967454	      4.52153236	      4.52153236	    -31.15140728
     13.71000000	     16.31190092	     -0.04586493	      0.73213662	     57.24115307	     57.24115307	    -79.37097061	    -79.37097061	      4.52101286	      4.52101286	    -31.22291316
     13.72000000	     16.28426787	     -0.04590077	      0.73213442	     57.26797605	     57.26797605	    -79.36199827	    -79.36199827	      4.52112568	      4.52112568	    -31.30269302
     13.73000000	     16.25457084	     -0.04593790	      0.73213304	     57.29660167	     57.29660167	    -79.35277417	    -79.35277417	      4.52197254	      4.52197254	    -31.39087143
     13.74000000	     16.22267578	     -0.04597453	      0.73213345	     57.32693867	     57.32693867	    -79.34323274	    -79.34323274	      4.52363043	      4.52363043	    -31.48744378
     13.75000000	     16.18841657	     -0.04600863	      0.73213679	     57.35893460	     57.35893460	    -79.33325476	    -79.33325476	      4.52613458	      4.52613458	    -31.59233533
     13.76000000	     16.15159259	     -0.04603847	      0.73214383	     57.39262096	     57.39262096	    -79.32268708	    -79.32268708	      4.52947190	      4.52947190	    -31.70548327
     13.77000000	     16.11195576	     -0.04606249	      0.73215528	     57.42809371	     57.42809371	    -79.31134462	    -79.31134462	      4.53358318	      4.53358318	    -31.82678658
     13.78000000	     16.06958300	     -0.04610045	      0.73216890	     57.46843514	     57.46843514	    -79.29799817	    -79.29799817	      4.53863060	      4.53863060	    -31.96225259
     13.79000000	     16.02358169	     -0.04609279	      0.73219317	     57.50475089	     57.50475089	    -79.28548938	    -79.28548938	      4.54393158	      4.54393158	    -32.09407938
     13.80000000	     15.97293070	     -0.04608822	      0.73221664	     57.54749393	     57.54749393	    -79.27101064	    -79.27101064	      4.54959427	      4.54959427	    -32.23911546
     13.81000000	     15.91791742	     -0.04607177	      0.73224410	     57.59321438	     57.59321438	    -79.25518052	    -79.25518052	      4.55558062	      4.55558062	    -32.39191019
     13.82000000	     15.85805436	     -0.04604015	      0.73227480	     57.64224269	     57.64224269	    -79.23803716	    -79.23803716	      4.56182062	      4.56182062	    -32.55265551
     13.83000000	     15.79299426	     -0.04599200	      0.73230780	     57.69496780	     57.69496780	    -79.21967900	    -79.21967900	      4.56827387	      4.56827387	    -32.72162836
     13.84000000	     15.72238733	     -0.04592659	      0.73234219	     57.75183581	     57.75183581	    -79.20025105	    -79.20025105	      4.57492704	      4.57492704	    -32.89921875
     13.85000000	     15.64584890	     -0.04584396	      0.73237700	     57.81335845	     57.81335845	    -79.17990804	    -79.17990804	      4.58179310	      4.58179310	    -33.08588531
